solid OpenSCAD_Model
  facet normal -1 0 0
    outer loop
      vertex 0 17.93 0
      vertex 0 17.13 1.7
      vertex 0 17.93 1.7
    endloop
  endfacet
  facet normal -1 0 0
    outer loop
      vertex 0 17.13 1.7
      vertex 0 1.8 1.7
      vertex 0 17.13 3
    endloop
  endfacet
  facet normal -1 0 0
    outer loop
      vertex 0 17.93 0
      vertex 0 1.8 1.7
      vertex 0 17.13 1.7
    endloop
  endfacet
  facet normal -1 0 0
    outer loop
      vertex 0 1 0
      vertex 0 1.8 1.7
      vertex 0 17.93 0
    endloop
  endfacet
  facet normal -1 -0 0
    outer loop
      vertex 0 1.8 1.7
      vertex 0 1 0
      vertex 0 1 1.7
    endloop
  endfacet
  facet normal -1 -0 0
    outer loop
      vertex 0 17.13 3
      vertex 0 1.8 1.7
      vertex 0 1.8 3
    endloop
  endfacet
  facet normal 0 0 1
    outer loop
      vertex 17.9102 17.0163 3
      vertex 18.93 17.13 3
      vertex 18.2412 17.267 3
    endloop
  endfacet
  facet normal 0 0 1
    outer loop
      vertex 18.93 17.13 3
      vertex 17.9102 17.0163 3
      vertex 18.93 1.8 3
    endloop
  endfacet
  facet normal -0 0 1
    outer loop
      vertex 17.9102 1.91367 3
      vertex 18.93 1.8 3
      vertex 17.9102 17.0163 3
    endloop
  endfacet
  facet normal 0 0 1
    outer loop
      vertex 17.6572 17.6572 3
      vertex 17.9102 17.0163 3
      vertex 18.2412 17.267 3
    endloop
  endfacet
  facet normal 0 0 1
    outer loop
      vertex 17.6572 17.6572 3
      vertex 17.3744 17.3744 3
      vertex 17.9102 17.0163 3
    endloop
  endfacet
  facet normal -0 0 1
    outer loop
      vertex 17.0163 17.9102 3
      vertex 17.6572 17.6572 3
      vertex 17.267 18.2412 3
    endloop
  endfacet
  facet normal 0 0 1
    outer loop
      vertex 17.0163 17.9102 3
      vertex 17.267 18.2412 3
      vertex 17.13 18.93 3
    endloop
  endfacet
  facet normal 0 0 1
    outer loop
      vertex 17.6572 17.6572 3
      vertex 17.0163 17.9102 3
      vertex 17.3744 17.3744 3
    endloop
  endfacet
  facet normal 0 0 1
    outer loop
      vertex 17.13 18.93 3
      vertex 1.91367 17.9102 3
      vertex 17.0163 17.9102 3
    endloop
  endfacet
  facet normal -0 0 1
    outer loop
      vertex 1.8 18.93 3
      vertex 1.91367 17.9102 3
      vertex 17.13 18.93 3
    endloop
  endfacet
  facet normal -0 0 1
    outer loop
      vertex 1.66298 18.2412 3
      vertex 1.91367 17.9102 3
      vertex 1.8 18.93 3
    endloop
  endfacet
  facet normal 0 0 1
    outer loop
      vertex 1.27279 17.6572 3
      vertex 1.91367 17.9102 3
      vertex 1.66298 18.2412 3
    endloop
  endfacet
  facet normal 0 0 1
    outer loop
      vertex 1.91367 17.9102 3
      vertex 1.27279 17.6572 3
      vertex 1.55563 17.3744 3
    endloop
  endfacet
  facet normal 0 0 1
    outer loop
      vertex 1.27279 17.6572 3
      vertex 1.0198 17.0163 3
      vertex 1.55563 17.3744 3
    endloop
  endfacet
  facet normal -0 0 1
    outer loop
      vertex 0 17.13 3
      vertex 1.0198 17.0163 3
      vertex 0.688829 17.267 3
    endloop
  endfacet
  facet normal -0 0 1
    outer loop
      vertex 0.688829 17.267 3
      vertex 1.0198 17.0163 3
      vertex 1.27279 17.6572 3
    endloop
  endfacet
  facet normal 0 0 1
    outer loop
      vertex 18.93 1.8 3
      vertex 17.9102 1.91367 3
      vertex 18.2412 1.66298 3
    endloop
  endfacet
  facet normal 0 0 1
    outer loop
      vertex 17.9102 1.91367 3
      vertex 17.6572 1.27279 3
      vertex 18.2412 1.66298 3
    endloop
  endfacet
  facet normal -0 0 1
    outer loop
      vertex 17.3744 1.55563 3
      vertex 17.6572 1.27279 3
      vertex 17.9102 1.91367 3
    endloop
  endfacet
  facet normal 0 0 1
    outer loop
      vertex 17.0163 1.0198 3
      vertex 17.6572 1.27279 3
      vertex 17.3744 1.55563 3
    endloop
  endfacet
  facet normal 0 0 1
    outer loop
      vertex 17.6572 1.27279 3
      vertex 17.0163 1.0198 3
      vertex 17.267 0.688829 3
    endloop
  endfacet
  facet normal 0 0 1
    outer loop
      vertex 17.267 0.688829 3
      vertex 17.0163 1.0198 3
      vertex 17.13 0 3
    endloop
  endfacet
  facet normal -0 0 1
    outer loop
      vertex 1.91367 1.0198 3
      vertex 17.13 0 3
      vertex 17.0163 1.0198 3
    endloop
  endfacet
  facet normal 0 0 1
    outer loop
      vertex 1.91367 1.0198 3
      vertex 1.8 0 3
      vertex 17.13 0 3
    endloop
  endfacet
  facet normal 0 0 1
    outer loop
      vertex 1.91367 1.0198 3
      vertex 1.66298 0.688829 3
      vertex 1.8 0 3
    endloop
  endfacet
  facet normal -0 0 1
    outer loop
      vertex 1.27279 1.27279 3
      vertex 1.91367 1.0198 3
      vertex 1.55563 1.55563 3
    endloop
  endfacet
  facet normal 0 0 1
    outer loop
      vertex 1.91367 1.0198 3
      vertex 1.27279 1.27279 3
      vertex 1.66298 0.688829 3
    endloop
  endfacet
  facet normal 0 0 1
    outer loop
      vertex 1.0198 1.91367 3
      vertex 1.27279 1.27279 3
      vertex 1.55563 1.55563 3
    endloop
  endfacet
  facet normal 0 0 1
    outer loop
      vertex 1.0198 1.91367 3
      vertex 0.688829 1.66298 3
      vertex 1.27279 1.27279 3
    endloop
  endfacet
  facet normal 0 0 1
    outer loop
      vertex 1.0198 17.0163 3
      vertex 0 17.13 3
      vertex 1.0198 1.91367 3
    endloop
  endfacet
  facet normal 0 0 1
    outer loop
      vertex 0 1.8 3
      vertex 1.0198 1.91367 3
      vertex 0 17.13 3
    endloop
  endfacet
  facet normal 0 0 1
    outer loop
      vertex 1.0198 1.91367 3
      vertex 0 1.8 3
      vertex 0.688829 1.66298 3
    endloop
  endfacet
  facet normal 1 0 0
    outer loop
      vertex 18.93 17.13 3
      vertex 18.93 1.8 3
      vertex 18.93 17.13 1.7
    endloop
  endfacet
  facet normal 1 -0 0
    outer loop
      vertex 18.93 17.13 1.7
      vertex 18.93 17.93 0
      vertex 18.93 17.93 1.7
    endloop
  endfacet
  facet normal 1 0 0
    outer loop
      vertex 18.93 1.8 1.7
      vertex 18.93 17.13 1.7
      vertex 18.93 1.8 3
    endloop
  endfacet
  facet normal 1 0 0
    outer loop
      vertex 18.93 17.13 1.7
      vertex 18.93 1.8 1.7
      vertex 18.93 17.93 0
    endloop
  endfacet
  facet normal 1 0 0
    outer loop
      vertex 18.93 1 0
      vertex 18.93 1.8 1.7
      vertex 18.93 1 1.7
    endloop
  endfacet
  facet normal 1 0 0
    outer loop
      vertex 18.93 1.8 1.7
      vertex 18.93 1 0
      vertex 18.93 17.93 0
    endloop
  endfacet
  facet normal 0 0 -1
    outer loop
      vertex 13.8534 7.64725 0
      vertex 18.93 1 0
      vertex 18.5473 0.923879 0
    endloop
  endfacet
  facet normal 0 0 -1
    outer loop
      vertex 18.93 1 0
      vertex 14.215 9.465 0
      vertex 18.93 17.93 0
    endloop
  endfacet
  facet normal 0 0 -1
    outer loop
      vertex 13.4145 6.82604 0
      vertex 18.5473 0.923879 0
      vertex 18.2229 0.707107 0
    endloop
  endfacet
  facet normal 0 0 -1
    outer loop
      vertex 14.1237 10.3917 0
      vertex 18.93 17.93 0
      vertex 14.215 9.465 0
    endloop
  endfacet
  facet normal 0 0 -1
    outer loop
      vertex 12.104 5.51552 0
      vertex 18.2229 0.707107 0
      vertex 18.0061 0.382683 0
    endloop
  endfacet
  facet normal 0 0 -1
    outer loop
      vertex 13.8534 11.2827 0
      vertex 18.93 17.93 0
      vertex 14.1237 10.3917 0
    endloop
  endfacet
  facet normal 0 0 -1
    outer loop
      vertex 12.0094 5.465 0
      vertex 18.0061 0.382683 0
      vertex 17.93 0 0
    endloop
  endfacet
  facet normal -0 0 -1
    outer loop
      vertex 18.93 17.93 0
      vertex 13.8534 11.2827 0
      vertex 18.5473 18.0061 0
    endloop
  endfacet
  facet normal 0 0 -1
    outer loop
      vertex 13.4145 12.104 0
      vertex 18.5473 18.0061 0
      vertex 13.8534 11.2827 0
    endloop
  endfacet
  facet normal 0 0 -1
    outer loop
      vertex 18.93 1 0
      vertex 14.1237 8.53832 0
      vertex 14.215 9.465 0
    endloop
  endfacet
  facet normal 0 0 -1
    outer loop
      vertex 18.93 1 0
      vertex 13.8534 7.64725 0
      vertex 14.1237 8.53832 0
    endloop
  endfacet
  facet normal 0 0 -1
    outer loop
      vertex 18.5473 0.923879 0
      vertex 13.4145 6.82604 0
      vertex 13.8534 7.64725 0
    endloop
  endfacet
  facet normal 0 0 -1
    outer loop
      vertex 18.2229 0.707107 0
      vertex 12.8238 6.10624 0
      vertex 13.4145 6.82604 0
    endloop
  endfacet
  facet normal 0 0 -1
    outer loop
      vertex 18.2229 0.707107 0
      vertex 12.104 5.51552 0
      vertex 12.8238 6.10624 0
    endloop
  endfacet
  facet normal 0 0 -1
    outer loop
      vertex 18.0061 0.382683 0
      vertex 12.0094 5.465 0
      vertex 12.104 5.51552 0
    endloop
  endfacet
  facet normal 0 0 -1
    outer loop
      vertex 17.93 0 0
      vertex 6.92056 5.465 0
      vertex 12.0094 5.465 0
    endloop
  endfacet
  facet normal 0 0 -1
    outer loop
      vertex 0.382683 0.923879 0
      vertex 5.51552 6.82604 0
      vertex 0.707107 0.707107 0
    endloop
  endfacet
  facet normal -0 0 -1
    outer loop
      vertex 6.10624 6.10624 0
      vertex 0.707107 0.707107 0
      vertex 5.51552 6.82604 0
    endloop
  endfacet
  facet normal -0 0 -1
    outer loop
      vertex 6.82604 5.51552 0
      vertex 0.707107 0.707107 0
      vertex 6.10624 6.10624 0
    endloop
  endfacet
  facet normal 0 0 -1
    outer loop
      vertex 0.707107 0.707107 0
      vertex 6.82604 5.51552 0
      vertex 0.923879 0.382683 0
    endloop
  endfacet
  facet normal -0 0 -1
    outer loop
      vertex 6.92056 5.465 0
      vertex 0.923879 0.382683 0
      vertex 6.82604 5.51552 0
    endloop
  endfacet
  facet normal 0 0 -1
    outer loop
      vertex 0.923879 0.382683 0
      vertex 6.92056 5.465 0
      vertex 1 0 0
    endloop
  endfacet
  facet normal 0 0 -1
    outer loop
      vertex 1 0 0
      vertex 6.92056 5.465 0
      vertex 17.93 0 0
    endloop
  endfacet
  facet normal -0 0 -1
    outer loop
      vertex 18.5473 18.0061 0
      vertex 13.4145 12.104 0
      vertex 18.2229 18.2229 0
    endloop
  endfacet
  facet normal 0 0 -1
    outer loop
      vertex 12.8238 12.8238 0
      vertex 18.2229 18.2229 0
      vertex 13.4145 12.104 0
    endloop
  endfacet
  facet normal 0 0 -1
    outer loop
      vertex 12.104 13.4145 0
      vertex 18.2229 18.2229 0
      vertex 12.8238 12.8238 0
    endloop
  endfacet
  facet normal -0 0 -1
    outer loop
      vertex 18.2229 18.2229 0
      vertex 12.104 13.4145 0
      vertex 18.0061 18.5473 0
    endloop
  endfacet
  facet normal 0 0 -1
    outer loop
      vertex 12.0094 13.465 0
      vertex 18.0061 18.5473 0
      vertex 12.104 13.4145 0
    endloop
  endfacet
  facet normal -0 0 -1
    outer loop
      vertex 18.0061 18.5473 0
      vertex 12.0094 13.465 0
      vertex 17.93 18.93 0
    endloop
  endfacet
  facet normal 0 0 -1
    outer loop
      vertex 6.92056 13.465 0
      vertex 17.93 18.93 0
      vertex 12.0094 13.465 0
    endloop
  endfacet
  facet normal -0 0 -1
    outer loop
      vertex 5.51552 6.82604 0
      vertex 0.382683 0.923879 0
      vertex 5.07657 7.64725 0
    endloop
  endfacet
  facet normal 0 0 -1
    outer loop
      vertex 0 1 0
      vertex 5.07657 7.64725 0
      vertex 0.382683 0.923879 0
    endloop
  endfacet
  facet normal 0 0 -1
    outer loop
      vertex 6.92056 13.465 0
      vertex 1 18.93 0
      vertex 17.93 18.93 0
    endloop
  endfacet
  facet normal 0 0 -1
    outer loop
      vertex 0.923879 18.5473 0
      vertex 6.92056 13.465 0
      vertex 6.82604 13.4145 0
    endloop
  endfacet
  facet normal 0 0 -1
    outer loop
      vertex 0.707107 18.2229 0
      vertex 6.82604 13.4145 0
      vertex 6.10624 12.8238 0
    endloop
  endfacet
  facet normal 0 0 -1
    outer loop
      vertex 0.707107 18.2229 0
      vertex 6.10624 12.8238 0
      vertex 5.51552 12.104 0
    endloop
  endfacet
  facet normal 0 0 -1
    outer loop
      vertex 0.382683 18.0061 0
      vertex 5.51552 12.104 0
      vertex 5.07657 11.2827 0
    endloop
  endfacet
  facet normal -0 0 -1
    outer loop
      vertex 5.07657 7.64725 0
      vertex 0 1 0
      vertex 4.80627 8.53832 0
    endloop
  endfacet
  facet normal -0 0 -1
    outer loop
      vertex 4.80627 8.53832 0
      vertex 0 1 0
      vertex 4.715 9.465 0
    endloop
  endfacet
  facet normal 0 0 -1
    outer loop
      vertex 6.92056 13.465 0
      vertex 0.923879 18.5473 0
      vertex 1 18.93 0
    endloop
  endfacet
  facet normal 0 0 -1
    outer loop
      vertex 0 17.93 0
      vertex 4.715 9.465 0
      vertex 0 1 0
    endloop
  endfacet
  facet normal 0 0 -1
    outer loop
      vertex 6.82604 13.4145 0
      vertex 0.707107 18.2229 0
      vertex 0.923879 18.5473 0
    endloop
  endfacet
  facet normal 0 0 -1
    outer loop
      vertex 4.715 9.465 0
      vertex 0 17.93 0
      vertex 4.80627 10.3917 0
    endloop
  endfacet
  facet normal 0 0 -1
    outer loop
      vertex 5.51552 12.104 0
      vertex 0.382683 18.0061 0
      vertex 0.707107 18.2229 0
    endloop
  endfacet
  facet normal 0 0 -1
    outer loop
      vertex 4.80627 10.3917 0
      vertex 0 17.93 0
      vertex 5.07657 11.2827 0
    endloop
  endfacet
  facet normal 0 0 -1
    outer loop
      vertex 5.07657 11.2827 0
      vertex 0 17.93 0
      vertex 0.382683 18.0061 0
    endloop
  endfacet
  facet normal 0 -1 0
    outer loop
      vertex 1 0 0
      vertex 1.8 0 1.7
      vertex 1 0 1.7
    endloop
  endfacet
  facet normal 0 -1 -0
    outer loop
      vertex 1.8 0 1.7
      vertex 1 0 0
      vertex 17.13 0 1.7
    endloop
  endfacet
  facet normal 0 -1 0
    outer loop
      vertex 17.93 0 0
      vertex 17.13 0 1.7
      vertex 1 0 0
    endloop
  endfacet
  facet normal 0 -1 0
    outer loop
      vertex 17.13 0 1.7
      vertex 17.93 0 0
      vertex 17.93 0 1.7
    endloop
  endfacet
  facet normal 0 -1 0
    outer loop
      vertex 1.8 0 1.7
      vertex 17.13 0 3
      vertex 1.8 0 3
    endloop
  endfacet
  facet normal 0 -1 -0
    outer loop
      vertex 17.13 0 3
      vertex 1.8 0 1.7
      vertex 17.13 0 1.7
    endloop
  endfacet
  facet normal 0 1 -0
    outer loop
      vertex 17.93 18.93 0
      vertex 17.13 18.93 1.7
      vertex 17.93 18.93 1.7
    endloop
  endfacet
  facet normal 0 1 0
    outer loop
      vertex 17.13 18.93 1.7
      vertex 17.93 18.93 0
      vertex 1.8 18.93 1.7
    endloop
  endfacet
  facet normal 0 1 0
    outer loop
      vertex 1 18.93 0
      vertex 1.8 18.93 1.7
      vertex 17.93 18.93 0
    endloop
  endfacet
  facet normal 0 1 0
    outer loop
      vertex 1.8 18.93 1.7
      vertex 1 18.93 0
      vertex 1 18.93 1.7
    endloop
  endfacet
  facet normal 0 1 -0
    outer loop
      vertex 17.13 18.93 1.7
      vertex 1.8 18.93 3
      vertex 17.13 18.93 3
    endloop
  endfacet
  facet normal 0 1 0
    outer loop
      vertex 1.8 18.93 3
      vertex 17.13 18.93 1.7
      vertex 1.8 18.93 1.7
    endloop
  endfacet
  facet normal 8.37892e-06 0.450784 0.892633
    outer loop
      vertex 15.93 3 2
      vertex 17.0163 1.0198 3
      vertex 17.3744 1.55563 2.7294
    endloop
  endfacet
  facet normal -0 0.45078 0.892635
    outer loop
      vertex 14.465 3 2
      vertex 17.0163 1.0198 3
      vertex 15.93 3 2
    endloop
  endfacet
  facet normal -0 0.45078 0.892635
    outer loop
      vertex 4.465 3 2
      vertex 17.0163 1.0198 3
      vertex 14.465 3 2
    endloop
  endfacet
  facet normal 0 0.45078 0.892635
    outer loop
      vertex 1.91367 1.0198 3
      vertex 4.465 3 2
      vertex 3 3 2
    endloop
  endfacet
  facet normal 0 0.45078 0.892635
    outer loop
      vertex 4.465 3 2
      vertex 1.91367 1.0198 3
      vertex 17.0163 1.0198 3
    endloop
  endfacet
  facet normal -8.37959e-06 0.450784 0.892633
    outer loop
      vertex 1.91367 1.0198 3
      vertex 3 3 2
      vertex 1.55563 1.55563 2.7294
    endloop
  endfacet
  facet normal -0.450793 2.91194e-05 0.892629
    outer loop
      vertex 15.93 15.93 2
      vertex 17.9102 17.0163 3
      vertex 17.3744 17.3744 2.7294
    endloop
  endfacet
  facet normal -0.45078 0 0.892635
    outer loop
      vertex 17.9102 17.0163 3
      vertex 15.93 15.93 2
      vertex 17.9102 1.91367 3
    endloop
  endfacet
  facet normal -0.45078 0 0.892635
    outer loop
      vertex 15.93 3 2
      vertex 17.9102 1.91367 3
      vertex 15.93 15.93 2
    endloop
  endfacet
  facet normal -0.450793 -2.91217e-05 0.892629
    outer loop
      vertex 17.9102 1.91367 3
      vertex 15.93 3 2
      vertex 17.3744 1.55563 2.7294
    endloop
  endfacet
  facet normal 0.450784 8.37892e-06 0.892633
    outer loop
      vertex 1.0198 17.0163 3
      vertex 3 15.93 2
      vertex 1.55563 17.3744 2.7294
    endloop
  endfacet
  facet normal 0.45078 0 0.892635
    outer loop
      vertex 3 15.93 2
      vertex 1.0198 17.0163 3
      vertex 3 3 2
    endloop
  endfacet
  facet normal 0.45078 -0 0.892635
    outer loop
      vertex 1.0198 1.91367 3
      vertex 3 3 2
      vertex 1.0198 17.0163 3
    endloop
  endfacet
  facet normal 0.450784 -8.37959e-06 0.892633
    outer loop
      vertex 3 3 2
      vertex 1.0198 1.91367 3
      vertex 1.55563 1.55563 2.7294
    endloop
  endfacet
  facet normal 2.91194e-05 -0.450793 0.892629
    outer loop
      vertex 17.0163 17.9102 3
      vertex 15.93 15.93 2
      vertex 17.3744 17.3744 2.7294
    endloop
  endfacet
  facet normal 0 -0.45078 0.892635
    outer loop
      vertex 17.0163 17.9102 3
      vertex 14.465 15.93 2
      vertex 15.93 15.93 2
    endloop
  endfacet
  facet normal 0 -0.45078 0.892635
    outer loop
      vertex 17.0163 17.9102 3
      vertex 4.465 15.93 2
      vertex 14.465 15.93 2
    endloop
  endfacet
  facet normal 0 -0.45078 0.892635
    outer loop
      vertex 1.91367 17.9102 3
      vertex 4.465 15.93 2
      vertex 17.0163 17.9102 3
    endloop
  endfacet
  facet normal 0 -0.45078 0.892635
    outer loop
      vertex 4.465 15.93 2
      vertex 1.91367 17.9102 3
      vertex 3 15.93 2
    endloop
  endfacet
  facet normal -2.91217e-05 -0.450793 0.892629
    outer loop
      vertex 3 15.93 2
      vertex 1.91367 17.9102 3
      vertex 1.55563 17.3744 2.7294
    endloop
  endfacet
  facet normal -0 0 1
    outer loop
      vertex 12.0094 5.465 2
      vertex 14.465 3 2
      vertex 14.465 5.465 2
    endloop
  endfacet
  facet normal -0 0 1
    outer loop
      vertex 6.92056 5.465 2
      vertex 14.465 3 2
      vertex 12.0094 5.465 2
    endloop
  endfacet
  facet normal 0 0 1
    outer loop
      vertex 4.465 3 2
      vertex 6.92056 5.465 2
      vertex 4.465 5.465 2
    endloop
  endfacet
  facet normal 0 0 1
    outer loop
      vertex 6.92056 5.465 2
      vertex 4.465 3 2
      vertex 14.465 3 2
    endloop
  endfacet
  facet normal -0 0 1
    outer loop
      vertex 14.1237 8.53832 2
      vertex 15.93 3 2
      vertex 14.215 9.465 2
    endloop
  endfacet
  facet normal 0 0 1
    outer loop
      vertex 15.93 15.93 2
      vertex 14.1237 10.3917 2
      vertex 14.215 9.465 2
    endloop
  endfacet
  facet normal 0 0 1
    outer loop
      vertex 14.465 13.465 2
      vertex 13.8534 11.2827 2
      vertex 14.1237 10.3917 2
    endloop
  endfacet
  facet normal 0 0 1
    outer loop
      vertex 14.465 13.465 2
      vertex 13.4145 12.104 2
      vertex 13.8534 11.2827 2
    endloop
  endfacet
  facet normal 0 0 1
    outer loop
      vertex 14.465 13.465 2
      vertex 12.8238 12.8238 2
      vertex 13.4145 12.104 2
    endloop
  endfacet
  facet normal 0 0 1
    outer loop
      vertex 14.465 13.465 2
      vertex 12.104 13.4145 2
      vertex 12.8238 12.8238 2
    endloop
  endfacet
  facet normal 0 -0 1
    outer loop
      vertex 12.104 13.4145 2
      vertex 14.465 13.465 2
      vertex 12.0094 13.465 2
    endloop
  endfacet
  facet normal 0 0 1
    outer loop
      vertex 14.465 13.465 2
      vertex 15.93 15.93 2
      vertex 14.465 15.93 2
    endloop
  endfacet
  facet normal 0 0 1
    outer loop
      vertex 14.1237 10.3917 2
      vertex 15.93 15.93 2
      vertex 14.465 13.465 2
    endloop
  endfacet
  facet normal 0 0 1
    outer loop
      vertex 15.93 15.93 2
      vertex 14.215 9.465 2
      vertex 15.93 3 2
    endloop
  endfacet
  facet normal 0 0 1
    outer loop
      vertex 15.93 3 2
      vertex 14.465 5.465 2
      vertex 14.465 3 2
    endloop
  endfacet
  facet normal 0 0 1
    outer loop
      vertex 15.93 3 2
      vertex 14.1237 8.53832 2
      vertex 14.465 5.465 2
    endloop
  endfacet
  facet normal -0 0 1
    outer loop
      vertex 13.8534 7.64725 2
      vertex 14.465 5.465 2
      vertex 14.1237 8.53832 2
    endloop
  endfacet
  facet normal -0 0 1
    outer loop
      vertex 13.4145 6.82604 2
      vertex 14.465 5.465 2
      vertex 13.8534 7.64725 2
    endloop
  endfacet
  facet normal -0 0 1
    outer loop
      vertex 12.8238 6.10624 2
      vertex 14.465 5.465 2
      vertex 13.4145 6.82604 2
    endloop
  endfacet
  facet normal -0 0 1
    outer loop
      vertex 12.104 5.51552 2
      vertex 14.465 5.465 2
      vertex 12.8238 6.10624 2
    endloop
  endfacet
  facet normal 0 0 1
    outer loop
      vertex 14.465 5.465 2
      vertex 12.104 5.51552 2
      vertex 12.0094 5.465 2
    endloop
  endfacet
  facet normal 0 0 1
    outer loop
      vertex 3 15.93 2
      vertex 4.80627 10.3917 2
      vertex 4.465 13.465 2
    endloop
  endfacet
  facet normal 0 0 1
    outer loop
      vertex 5.07657 11.2827 2
      vertex 4.465 13.465 2
      vertex 4.80627 10.3917 2
    endloop
  endfacet
  facet normal 0 0 1
    outer loop
      vertex 5.51552 12.104 2
      vertex 4.465 13.465 2
      vertex 5.07657 11.2827 2
    endloop
  endfacet
  facet normal 0 0 1
    outer loop
      vertex 6.10624 12.8238 2
      vertex 4.465 13.465 2
      vertex 5.51552 12.104 2
    endloop
  endfacet
  facet normal 0 0 1
    outer loop
      vertex 6.82604 13.4145 2
      vertex 4.465 13.465 2
      vertex 6.10624 12.8238 2
    endloop
  endfacet
  facet normal -0 0 1
    outer loop
      vertex 4.465 13.465 2
      vertex 6.82604 13.4145 2
      vertex 6.92056 13.465 2
    endloop
  endfacet
  facet normal 0 0 1
    outer loop
      vertex 6.82604 5.51552 2
      vertex 4.465 5.465 2
      vertex 6.92056 5.465 2
    endloop
  endfacet
  facet normal 0 0 1
    outer loop
      vertex 6.10624 6.10624 2
      vertex 4.465 5.465 2
      vertex 6.82604 5.51552 2
    endloop
  endfacet
  facet normal 0 0 1
    outer loop
      vertex 5.51552 6.82604 2
      vertex 4.465 5.465 2
      vertex 6.10624 6.10624 2
    endloop
  endfacet
  facet normal 0 0 1
    outer loop
      vertex 5.07657 7.64725 2
      vertex 4.465 5.465 2
      vertex 5.51552 6.82604 2
    endloop
  endfacet
  facet normal 0 0 1
    outer loop
      vertex 4.80627 8.53832 2
      vertex 4.465 5.465 2
      vertex 5.07657 7.64725 2
    endloop
  endfacet
  facet normal 0 0 1
    outer loop
      vertex 3 3 2
      vertex 4.80627 8.53832 2
      vertex 4.715 9.465 2
    endloop
  endfacet
  facet normal 0 0 1
    outer loop
      vertex 4.80627 10.3917 2
      vertex 3 15.93 2
      vertex 4.715 9.465 2
    endloop
  endfacet
  facet normal -0 0 1
    outer loop
      vertex 3 15.93 2
      vertex 4.465 13.465 2
      vertex 4.465 15.93 2
    endloop
  endfacet
  facet normal 0 0 1
    outer loop
      vertex 3 3 2
      vertex 4.715 9.465 2
      vertex 3 15.93 2
    endloop
  endfacet
  facet normal 0 0 1
    outer loop
      vertex 4.80627 8.53832 2
      vertex 3 3 2
      vertex 4.465 5.465 2
    endloop
  endfacet
  facet normal 0 0 1
    outer loop
      vertex 4.465 5.465 2
      vertex 3 3 2
      vertex 4.465 3 2
    endloop
  endfacet
  facet normal 0 0 1
    outer loop
      vertex 14.465 15.93 2
      vertex 12.0094 13.465 2
      vertex 14.465 13.465 2
    endloop
  endfacet
  facet normal 0 0 1
    outer loop
      vertex 14.465 15.93 2
      vertex 6.92056 13.465 2
      vertex 12.0094 13.465 2
    endloop
  endfacet
  facet normal -0 0 1
    outer loop
      vertex 4.465 15.93 2
      vertex 6.92056 13.465 2
      vertex 14.465 15.93 2
    endloop
  endfacet
  facet normal 0 0 1
    outer loop
      vertex 6.92056 13.465 2
      vertex 4.465 15.93 2
      vertex 4.465 13.465 2
    endloop
  endfacet
  facet normal -0.995182 -0.0980469 0
    outer loop
      vertex 14.215 9.465 0
      vertex 14.1237 10.3917 2
      vertex 14.1237 10.3917 0
    endloop
  endfacet
  facet normal -0.995182 -0.0980469 0
    outer loop
      vertex 14.1237 10.3917 2
      vertex 14.215 9.465 0
      vertex 14.215 9.465 2
    endloop
  endfacet
  facet normal 0.995185 -0.098015 0
    outer loop
      vertex 4.715 9.465 2
      vertex 4.80627 10.3917 0
      vertex 4.80627 10.3917 2
    endloop
  endfacet
  facet normal 0.995185 -0.098015 0
    outer loop
      vertex 4.80627 10.3917 0
      vertex 4.715 9.465 2
      vertex 4.715 9.465 0
    endloop
  endfacet
  facet normal 0.773013 0.63439 0
    outer loop
      vertex 6.10624 6.10624 2
      vertex 5.51552 6.82604 0
      vertex 5.51552 6.82604 2
    endloop
  endfacet
  facet normal 0.773013 0.63439 0
    outer loop
      vertex 5.51552 6.82604 0
      vertex 6.10624 6.10624 2
      vertex 6.10624 6.10624 0
    endloop
  endfacet
  facet normal -0.634378 -0.773023 0
    outer loop
      vertex 12.104 13.4145 0
      vertex 12.8238 12.8238 2
      vertex 12.104 13.4145 2
    endloop
  endfacet
  facet normal -0.634378 -0.773023 -0
    outer loop
      vertex 12.8238 12.8238 2
      vertex 12.104 13.4145 0
      vertex 12.8238 12.8238 0
    endloop
  endfacet
  facet normal 0.634378 -0.773023 0
    outer loop
      vertex 6.10624 12.8238 0
      vertex 6.82604 13.4145 2
      vertex 6.10624 12.8238 2
    endloop
  endfacet
  facet normal 0.634378 -0.773023 0
    outer loop
      vertex 6.82604 13.4145 2
      vertex 6.10624 12.8238 0
      vertex 6.82604 13.4145 0
    endloop
  endfacet
  facet normal -0.881963 -0.471318 0
    outer loop
      vertex 13.8534 11.2827 0
      vertex 13.4145 12.104 2
      vertex 13.4145 12.104 0
    endloop
  endfacet
  facet normal -0.881963 -0.471318 0
    outer loop
      vertex 13.4145 12.104 2
      vertex 13.8534 11.2827 0
      vertex 13.8534 11.2827 2
    endloop
  endfacet
  facet normal -0.956935 -0.290302 0
    outer loop
      vertex 14.1237 10.3917 0
      vertex 13.8534 11.2827 2
      vertex 13.8534 11.2827 0
    endloop
  endfacet
  facet normal -0.956935 -0.290302 0
    outer loop
      vertex 13.8534 11.2827 2
      vertex 14.1237 10.3917 0
      vertex 14.1237 10.3917 2
    endloop
  endfacet
  facet normal -0.773023 -0.634378 0
    outer loop
      vertex 13.4145 12.104 0
      vertex 12.8238 12.8238 2
      vertex 12.8238 12.8238 0
    endloop
  endfacet
  facet normal -0.773023 -0.634378 0
    outer loop
      vertex 12.8238 12.8238 2
      vertex 13.4145 12.104 0
      vertex 13.4145 12.104 2
    endloop
  endfacet
  facet normal -0.470927 -0.882172 0
    outer loop
      vertex 12.0094 13.465 0
      vertex 12.104 13.4145 2
      vertex 12.0094 13.465 2
    endloop
  endfacet
  facet normal -0.470927 -0.882172 -0
    outer loop
      vertex 12.104 13.4145 2
      vertex 12.0094 13.465 0
      vertex 12.104 13.4145 0
    endloop
  endfacet
  facet normal 0.881941 -0.47136 0
    outer loop
      vertex 5.07657 11.2827 2
      vertex 5.51552 12.104 0
      vertex 5.51552 12.104 2
    endloop
  endfacet
  facet normal 0.881941 -0.47136 0
    outer loop
      vertex 5.51552 12.104 0
      vertex 5.07657 11.2827 2
      vertex 5.07657 11.2827 0
    endloop
  endfacet
  facet normal 0.773013 -0.63439 0
    outer loop
      vertex 5.51552 12.104 2
      vertex 6.10624 12.8238 0
      vertex 6.10624 12.8238 2
    endloop
  endfacet
  facet normal 0.773013 -0.63439 0
    outer loop
      vertex 6.10624 12.8238 0
      vertex 5.51552 12.104 2
      vertex 5.51552 12.104 0
    endloop
  endfacet
  facet normal 0.956935 -0.290302 0
    outer loop
      vertex 4.80627 10.3917 2
      vertex 5.07657 11.2827 0
      vertex 5.07657 11.2827 2
    endloop
  endfacet
  facet normal 0.956935 -0.290302 0
    outer loop
      vertex 5.07657 11.2827 0
      vertex 4.80627 10.3917 2
      vertex 4.80627 10.3917 0
    endloop
  endfacet
  facet normal 0.471237 -0.882007 0
    outer loop
      vertex 6.82604 13.4145 0
      vertex 6.92056 13.465 2
      vertex 6.82604 13.4145 2
    endloop
  endfacet
  facet normal 0.471237 -0.882007 0
    outer loop
      vertex 6.92056 13.465 2
      vertex 6.82604 13.4145 0
      vertex 6.92056 13.465 0
    endloop
  endfacet
  facet normal -0.471072 0.882095 0
    outer loop
      vertex 12.104 5.51552 0
      vertex 12.0094 5.465 2
      vertex 12.104 5.51552 2
    endloop
  endfacet
  facet normal -0.471072 0.882095 0
    outer loop
      vertex 12.0094 5.465 2
      vertex 12.104 5.51552 0
      vertex 12.0094 5.465 0
    endloop
  endfacet
  facet normal 0.63439 0.773013 -0
    outer loop
      vertex 6.82604 5.51552 0
      vertex 6.10624 6.10624 2
      vertex 6.82604 5.51552 2
    endloop
  endfacet
  facet normal 0.63439 0.773013 0
    outer loop
      vertex 6.10624 6.10624 2
      vertex 6.82604 5.51552 0
      vertex 6.10624 6.10624 0
    endloop
  endfacet
  facet normal 0.881919 0.4714 0
    outer loop
      vertex 5.51552 6.82604 2
      vertex 5.07657 7.64725 0
      vertex 5.07657 7.64725 2
    endloop
  endfacet
  facet normal 0.881919 0.4714 0
    outer loop
      vertex 5.07657 7.64725 0
      vertex 5.51552 6.82604 2
      vertex 5.51552 6.82604 0
    endloop
  endfacet
  facet normal 0.995185 0.0980171 0
    outer loop
      vertex 4.80627 8.53832 2
      vertex 4.715 9.465 0
      vertex 4.715 9.465 2
    endloop
  endfacet
  facet normal 0.995185 0.0980171 0
    outer loop
      vertex 4.715 9.465 0
      vertex 4.80627 8.53832 2
      vertex 4.80627 8.53832 0
    endloop
  endfacet
  facet normal -0.63439 0.773013 0
    outer loop
      vertex 12.8238 6.10624 0
      vertex 12.104 5.51552 2
      vertex 12.8238 6.10624 2
    endloop
  endfacet
  facet normal -0.63439 0.773013 0
    outer loop
      vertex 12.104 5.51552 2
      vertex 12.8238 6.10624 0
      vertex 12.104 5.51552 0
    endloop
  endfacet
  facet normal -0.956941 0.290282 0
    outer loop
      vertex 13.8534 7.64725 0
      vertex 14.1237 8.53832 2
      vertex 14.1237 8.53832 0
    endloop
  endfacet
  facet normal -0.956941 0.290282 0
    outer loop
      vertex 14.1237 8.53832 2
      vertex 13.8534 7.64725 0
      vertex 13.8534 7.64725 2
    endloop
  endfacet
  facet normal -0.773023 0.634378 0
    outer loop
      vertex 12.8238 6.10624 0
      vertex 13.4145 6.82604 2
      vertex 13.4145 6.82604 0
    endloop
  endfacet
  facet normal -0.773023 0.634378 0
    outer loop
      vertex 13.4145 6.82604 2
      vertex 12.8238 6.10624 0
      vertex 12.8238 6.10624 2
    endloop
  endfacet
  facet normal 0.471382 0.881929 -0
    outer loop
      vertex 6.92056 5.465 0
      vertex 6.82604 5.51552 2
      vertex 6.92056 5.465 2
    endloop
  endfacet
  facet normal 0.471382 0.881929 0
    outer loop
      vertex 6.82604 5.51552 2
      vertex 6.92056 5.465 0
      vertex 6.82604 5.51552 0
    endloop
  endfacet
  facet normal 0.956941 0.290282 0
    outer loop
      vertex 5.07657 7.64725 2
      vertex 4.80627 8.53832 0
      vertex 4.80627 8.53832 2
    endloop
  endfacet
  facet normal 0.956941 0.290282 0
    outer loop
      vertex 4.80627 8.53832 0
      vertex 5.07657 7.64725 2
      vertex 5.07657 7.64725 0
    endloop
  endfacet
  facet normal -0.995182 0.098049 0
    outer loop
      vertex 14.1237 8.53832 0
      vertex 14.215 9.465 2
      vertex 14.215 9.465 0
    endloop
  endfacet
  facet normal -0.995182 0.098049 0
    outer loop
      vertex 14.215 9.465 2
      vertex 14.1237 8.53832 0
      vertex 14.1237 8.53832 2
    endloop
  endfacet
  facet normal -0.881942 0.471358 0
    outer loop
      vertex 13.4145 6.82604 0
      vertex 13.8534 7.64725 2
      vertex 13.8534 7.64725 0
    endloop
  endfacet
  facet normal -0.881942 0.471358 0
    outer loop
      vertex 13.8534 7.64725 2
      vertex 13.4145 6.82604 0
      vertex 13.4145 6.82604 2
    endloop
  endfacet
  facet normal 0.831463 0.555581 0
    outer loop
      vertex 1.91367 1.0198 3
      vertex 1.55563 1.55563 2.7294
      vertex 1.55563 1.55563 3
    endloop
  endfacet
  facet normal 0.555581 0.831463 -0
    outer loop
      vertex 1.55563 1.55563 2.7294
      vertex 1.0198 1.91367 3
      vertex 1.55563 1.55563 3
    endloop
  endfacet
  facet normal -0.555602 0.831448 0
    outer loop
      vertex 17.9102 1.91367 3
      vertex 17.3744 1.55563 2.7294
      vertex 17.3744 1.55563 3
    endloop
  endfacet
  facet normal -0.83142 0.555645 0
    outer loop
      vertex 17.3744 1.55563 2.7294
      vertex 17.0163 1.0198 3
      vertex 17.3744 1.55563 3
    endloop
  endfacet
  facet normal 0.831448 -0.555602 0
    outer loop
      vertex 1.91367 17.9102 3
      vertex 1.55563 17.3744 3
      vertex 1.55563 17.3744 2.7294
    endloop
  endfacet
  facet normal 0.555645 -0.83142 0
    outer loop
      vertex 1.55563 17.3744 3
      vertex 1.0198 17.0163 3
      vertex 1.55563 17.3744 2.7294
    endloop
  endfacet
  facet normal -0.555667 -0.831405 -0
    outer loop
      vertex 17.3744 17.3744 3
      vertex 17.3744 17.3744 2.7294
      vertex 17.9102 17.0163 3
    endloop
  endfacet
  facet normal -0.831405 -0.555667 -0
    outer loop
      vertex 17.3744 17.3744 3
      vertex 17.0163 17.9102 3
      vertex 17.3744 17.3744 2.7294
    endloop
  endfacet
  facet normal 0 -1 0
    outer loop
      vertex 6.92056 13.465 0
      vertex 12.0094 13.465 2
      vertex 6.92056 13.465 2
    endloop
  endfacet
  facet normal 0 -1 -0
    outer loop
      vertex 12.0094 13.465 2
      vertex 6.92056 13.465 0
      vertex 12.0094 13.465 0
    endloop
  endfacet
  facet normal 0 1 -0
    outer loop
      vertex 12.0094 5.465 0
      vertex 6.92056 5.465 2
      vertex 12.0094 5.465 2
    endloop
  endfacet
  facet normal 0 1 0
    outer loop
      vertex 6.92056 5.465 2
      vertex 12.0094 5.465 0
      vertex 6.92056 5.465 0
    endloop
  endfacet
  facet normal -0.980785 -0.195092 0
    outer loop
      vertex 1 0 0
      vertex 0.923879 0.382683 1.7
      vertex 0.923879 0.382683 0
    endloop
  endfacet
  facet normal -0.980785 -0.195092 0
    outer loop
      vertex 0.923879 0.382683 1.7
      vertex 1 0 0
      vertex 1 0 1.7
    endloop
  endfacet
  facet normal -0.195092 -0.980785 0
    outer loop
      vertex 0 1 0
      vertex 0.382683 0.923879 1.7
      vertex 0 1 1.7
    endloop
  endfacet
  facet normal -0.195092 -0.980785 -0
    outer loop
      vertex 0.382683 0.923879 1.7
      vertex 0 1 0
      vertex 0.382683 0.923879 0
    endloop
  endfacet
  facet normal -0.831471 -0.555568 0
    outer loop
      vertex 0.923879 0.382683 0
      vertex 0.707107 0.707107 1.7
      vertex 0.707107 0.707107 0
    endloop
  endfacet
  facet normal -0.831471 -0.555568 0
    outer loop
      vertex 0.707107 0.707107 1.7
      vertex 0.923879 0.382683 0
      vertex 0.923879 0.382683 1.7
    endloop
  endfacet
  facet normal -0.555568 -0.831471 0
    outer loop
      vertex 0.382683 0.923879 0
      vertex 0.707107 0.707107 1.7
      vertex 0.382683 0.923879 1.7
    endloop
  endfacet
  facet normal -0.555568 -0.831471 -0
    outer loop
      vertex 0.707107 0.707107 1.7
      vertex 0.382683 0.923879 0
      vertex 0.707107 0.707107 0
    endloop
  endfacet
  facet normal -0.980784 -0.195095 0
    outer loop
      vertex 1.8 0 1.7
      vertex 1.66298 0.688829 3
      vertex 1.66298 0.688829 1.7
    endloop
  endfacet
  facet normal -0.980784 -0.195095 0
    outer loop
      vertex 1.66298 0.688829 3
      vertex 1.8 0 1.7
      vertex 1.8 0 3
    endloop
  endfacet
  facet normal -0.55557 -0.83147 0
    outer loop
      vertex 0.688829 1.66298 1.7
      vertex 1.27279 1.27279 3
      vertex 0.688829 1.66298 3
    endloop
  endfacet
  facet normal -0.55557 -0.83147 -0
    outer loop
      vertex 1.27279 1.27279 3
      vertex 0.688829 1.66298 1.7
      vertex 1.27279 1.27279 1.7
    endloop
  endfacet
  facet normal -0.83147 -0.55557 0
    outer loop
      vertex 1.66298 0.688829 1.7
      vertex 1.27279 1.27279 3
      vertex 1.27279 1.27279 1.7
    endloop
  endfacet
  facet normal -0.83147 -0.55557 0
    outer loop
      vertex 1.27279 1.27279 3
      vertex 1.66298 0.688829 1.7
      vertex 1.66298 0.688829 3
    endloop
  endfacet
  facet normal -0.195095 -0.980784 0
    outer loop
      vertex 0 1.8 1.7
      vertex 0.688829 1.66298 3
      vertex 0 1.8 3
    endloop
  endfacet
  facet normal -0.195095 -0.980784 -0
    outer loop
      vertex 0.688829 1.66298 3
      vertex 0 1.8 1.7
      vertex 0.688829 1.66298 1.7
    endloop
  endfacet
  facet normal 0 0 1
    outer loop
      vertex 0.923879 0.382683 1.7
      vertex 1.66298 0.688829 1.7
      vertex 1.27279 1.27279 1.7
    endloop
  endfacet
  facet normal 0 0 1
    outer loop
      vertex 1.66298 0.688829 1.7
      vertex 0.923879 0.382683 1.7
      vertex 1.8 0 1.7
    endloop
  endfacet
  facet normal 0 0 1
    outer loop
      vertex 1.8 0 1.7
      vertex 0.923879 0.382683 1.7
      vertex 1 0 1.7
    endloop
  endfacet
  facet normal 0 0 1
    outer loop
      vertex 1.27279 1.27279 1.7
      vertex 0.707107 0.707107 1.7
      vertex 0.923879 0.382683 1.7
    endloop
  endfacet
  facet normal 0 0 1
    outer loop
      vertex 0.688829 1.66298 1.7
      vertex 0.707107 0.707107 1.7
      vertex 1.27279 1.27279 1.7
    endloop
  endfacet
  facet normal 0 0 1
    outer loop
      vertex 0.688829 1.66298 1.7
      vertex 0.382683 0.923879 1.7
      vertex 0.707107 0.707107 1.7
    endloop
  endfacet
  facet normal 0 0 1
    outer loop
      vertex 0 1.8 1.7
      vertex 0.382683 0.923879 1.7
      vertex 0.688829 1.66298 1.7
    endloop
  endfacet
  facet normal 0 0 1
    outer loop
      vertex 0.382683 0.923879 1.7
      vertex 0 1.8 1.7
      vertex 0 1 1.7
    endloop
  endfacet
  facet normal 0.980795 -0.19504 0
    outer loop
      vertex 17.93 0 1.7
      vertex 18.0061 0.382683 0
      vertex 18.0061 0.382683 1.7
    endloop
  endfacet
  facet normal 0.980795 -0.19504 0
    outer loop
      vertex 18.0061 0.382683 0
      vertex 17.93 0 1.7
      vertex 17.93 0 0
    endloop
  endfacet
  facet normal 0.555597 -0.831452 0
    outer loop
      vertex 18.2229 0.707107 0
      vertex 18.5473 0.923879 1.7
      vertex 18.2229 0.707107 1.7
    endloop
  endfacet
  facet normal 0.555597 -0.831452 0
    outer loop
      vertex 18.5473 0.923879 1.7
      vertex 18.2229 0.707107 0
      vertex 18.5473 0.923879 0
    endloop
  endfacet
  facet normal 0.831438 -0.555618 0
    outer loop
      vertex 18.0061 0.382683 1.7
      vertex 18.2229 0.707107 0
      vertex 18.2229 0.707107 1.7
    endloop
  endfacet
  facet normal 0.831438 -0.555618 0
    outer loop
      vertex 18.2229 0.707107 0
      vertex 18.0061 0.382683 1.7
      vertex 18.0061 0.382683 0
    endloop
  endfacet
  facet normal 0.195084 -0.980787 0
    outer loop
      vertex 18.5473 0.923879 0
      vertex 18.93 1 1.7
      vertex 18.5473 0.923879 1.7
    endloop
  endfacet
  facet normal 0.195084 -0.980787 0
    outer loop
      vertex 18.93 1 1.7
      vertex 18.5473 0.923879 0
      vertex 18.93 1 0
    endloop
  endfacet
  facet normal 0.98079 -0.195068 0
    outer loop
      vertex 17.13 0 3
      vertex 17.267 0.688829 1.7
      vertex 17.267 0.688829 3
    endloop
  endfacet
  facet normal 0.98079 -0.195068 0
    outer loop
      vertex 17.267 0.688829 1.7
      vertex 17.13 0 3
      vertex 17.13 0 1.7
    endloop
  endfacet
  facet normal 0.195103 -0.980783 0
    outer loop
      vertex 18.2412 1.66298 1.7
      vertex 18.93 1.8 3
      vertex 18.2412 1.66298 3
    endloop
  endfacet
  facet normal 0.195103 -0.980783 0
    outer loop
      vertex 18.93 1.8 3
      vertex 18.2412 1.66298 1.7
      vertex 18.93 1.8 1.7
    endloop
  endfacet
  facet normal 0.555544 -0.831487 0
    outer loop
      vertex 17.6572 1.27279 1.7
      vertex 18.2412 1.66298 3
      vertex 17.6572 1.27279 3
    endloop
  endfacet
  facet normal 0.555544 -0.831487 0
    outer loop
      vertex 18.2412 1.66298 3
      vertex 17.6572 1.27279 1.7
      vertex 18.2412 1.66298 1.7
    endloop
  endfacet
  facet normal 0.831463 -0.55558 0
    outer loop
      vertex 17.267 0.688829 3
      vertex 17.6572 1.27279 1.7
      vertex 17.6572 1.27279 3
    endloop
  endfacet
  facet normal 0.831463 -0.55558 0
    outer loop
      vertex 17.6572 1.27279 1.7
      vertex 17.267 0.688829 3
      vertex 17.267 0.688829 1.7
    endloop
  endfacet
  facet normal 0 0 1
    outer loop
      vertex 18.93 1.8 1.7
      vertex 18.5473 0.923879 1.7
      vertex 18.93 1 1.7
    endloop
  endfacet
  facet normal -0 0 1
    outer loop
      vertex 18.2412 1.66298 1.7
      vertex 18.5473 0.923879 1.7
      vertex 18.93 1.8 1.7
    endloop
  endfacet
  facet normal 0 0 1
    outer loop
      vertex 18.2412 1.66298 1.7
      vertex 18.2229 0.707107 1.7
      vertex 18.5473 0.923879 1.7
    endloop
  endfacet
  facet normal -0 0 1
    outer loop
      vertex 17.6572 1.27279 1.7
      vertex 18.2229 0.707107 1.7
      vertex 18.2412 1.66298 1.7
    endloop
  endfacet
  facet normal 0 0 1
    outer loop
      vertex 18.2229 0.707107 1.7
      vertex 17.6572 1.27279 1.7
      vertex 18.0061 0.382683 1.7
    endloop
  endfacet
  facet normal -0 0 1
    outer loop
      vertex 17.267 0.688829 1.7
      vertex 18.0061 0.382683 1.7
      vertex 17.6572 1.27279 1.7
    endloop
  endfacet
  facet normal 0 0 1
    outer loop
      vertex 18.0061 0.382683 1.7
      vertex 17.267 0.688829 1.7
      vertex 17.93 0 1.7
    endloop
  endfacet
  facet normal 0 0 1
    outer loop
      vertex 17.93 0 1.7
      vertex 17.267 0.688829 1.7
      vertex 17.13 0 1.7
    endloop
  endfacet
  facet normal -0.19504 0.980795 0
    outer loop
      vertex 0.382683 18.0061 0
      vertex 0 17.93 1.7
      vertex 0.382683 18.0061 1.7
    endloop
  endfacet
  facet normal -0.19504 0.980795 0
    outer loop
      vertex 0 17.93 1.7
      vertex 0.382683 18.0061 0
      vertex 0 17.93 0
    endloop
  endfacet
  facet normal -0.980787 0.195084 0
    outer loop
      vertex 0.923879 18.5473 0
      vertex 1 18.93 1.7
      vertex 1 18.93 0
    endloop
  endfacet
  facet normal -0.980787 0.195084 0
    outer loop
      vertex 1 18.93 1.7
      vertex 0.923879 18.5473 0
      vertex 0.923879 18.5473 1.7
    endloop
  endfacet
  facet normal -0.555618 0.831438 0
    outer loop
      vertex 0.707107 18.2229 0
      vertex 0.382683 18.0061 1.7
      vertex 0.707107 18.2229 1.7
    endloop
  endfacet
  facet normal -0.555618 0.831438 0
    outer loop
      vertex 0.382683 18.0061 1.7
      vertex 0.707107 18.2229 0
      vertex 0.382683 18.0061 0
    endloop
  endfacet
  facet normal -0.831452 0.555597 0
    outer loop
      vertex 0.707107 18.2229 0
      vertex 0.923879 18.5473 1.7
      vertex 0.923879 18.5473 0
    endloop
  endfacet
  facet normal -0.831452 0.555597 0
    outer loop
      vertex 0.923879 18.5473 1.7
      vertex 0.707107 18.2229 0
      vertex 0.707107 18.2229 1.7
    endloop
  endfacet
  facet normal -0 0 1
    outer loop
      vertex 0.923879 18.5473 1.7
      vertex 1.66298 18.2412 1.7
      vertex 1.8 18.93 1.7
    endloop
  endfacet
  facet normal 0 0 1
    outer loop
      vertex 0.923879 18.5473 1.7
      vertex 1.8 18.93 1.7
      vertex 1 18.93 1.7
    endloop
  endfacet
  facet normal 0 0 1
    outer loop
      vertex 1.66298 18.2412 1.7
      vertex 0.923879 18.5473 1.7
      vertex 1.27279 17.6572 1.7
    endloop
  endfacet
  facet normal -0 0 1
    outer loop
      vertex 0.707107 18.2229 1.7
      vertex 1.27279 17.6572 1.7
      vertex 0.923879 18.5473 1.7
    endloop
  endfacet
  facet normal 0 0 1
    outer loop
      vertex 0.707107 18.2229 1.7
      vertex 0.688829 17.267 1.7
      vertex 1.27279 17.6572 1.7
    endloop
  endfacet
  facet normal -0 0 1
    outer loop
      vertex 0.382683 18.0061 1.7
      vertex 0.688829 17.267 1.7
      vertex 0.707107 18.2229 1.7
    endloop
  endfacet
  facet normal -0 0 1
    outer loop
      vertex 0 17.93 1.7
      vertex 0.688829 17.267 1.7
      vertex 0.382683 18.0061 1.7
    endloop
  endfacet
  facet normal 0 0 1
    outer loop
      vertex 0.688829 17.267 1.7
      vertex 0 17.93 1.7
      vertex 0 17.13 1.7
    endloop
  endfacet
  facet normal -0.831487 0.555544 0
    outer loop
      vertex 1.27279 17.6572 1.7
      vertex 1.66298 18.2412 3
      vertex 1.66298 18.2412 1.7
    endloop
  endfacet
  facet normal -0.831487 0.555544 0
    outer loop
      vertex 1.66298 18.2412 3
      vertex 1.27279 17.6572 1.7
      vertex 1.27279 17.6572 3
    endloop
  endfacet
  facet normal -0.195068 0.98079 0
    outer loop
      vertex 0.688829 17.267 1.7
      vertex 0 17.13 3
      vertex 0.688829 17.267 3
    endloop
  endfacet
  facet normal -0.195068 0.98079 0
    outer loop
      vertex 0 17.13 3
      vertex 0.688829 17.267 1.7
      vertex 0 17.13 1.7
    endloop
  endfacet
  facet normal -0.980783 0.195103 0
    outer loop
      vertex 1.66298 18.2412 1.7
      vertex 1.8 18.93 3
      vertex 1.8 18.93 1.7
    endloop
  endfacet
  facet normal -0.980783 0.195103 0
    outer loop
      vertex 1.8 18.93 3
      vertex 1.66298 18.2412 1.7
      vertex 1.66298 18.2412 3
    endloop
  endfacet
  facet normal -0.55558 0.831463 0
    outer loop
      vertex 1.27279 17.6572 1.7
      vertex 0.688829 17.267 3
      vertex 1.27279 17.6572 3
    endloop
  endfacet
  facet normal -0.55558 0.831463 0
    outer loop
      vertex 0.688829 17.267 3
      vertex 1.27279 17.6572 1.7
      vertex 0.688829 17.267 1.7
    endloop
  endfacet
  facet normal 0.555646 0.831419 -0
    outer loop
      vertex 18.5473 18.0061 0
      vertex 18.2229 18.2229 1.7
      vertex 18.5473 18.0061 1.7
    endloop
  endfacet
  facet normal 0.555646 0.831419 0
    outer loop
      vertex 18.2229 18.2229 1.7
      vertex 18.5473 18.0061 0
      vertex 18.2229 18.2229 0
    endloop
  endfacet
  facet normal 0.980797 0.195032 0
    outer loop
      vertex 18.0061 18.5473 1.7
      vertex 17.93 18.93 0
      vertex 17.93 18.93 1.7
    endloop
  endfacet
  facet normal 0.980797 0.195032 0
    outer loop
      vertex 17.93 18.93 0
      vertex 18.0061 18.5473 1.7
      vertex 18.0061 18.5473 0
    endloop
  endfacet
  facet normal 0.195032 0.980797 -0
    outer loop
      vertex 18.93 17.93 0
      vertex 18.5473 18.0061 1.7
      vertex 18.93 17.93 1.7
    endloop
  endfacet
  facet normal 0.195032 0.980797 0
    outer loop
      vertex 18.5473 18.0061 1.7
      vertex 18.93 17.93 0
      vertex 18.5473 18.0061 0
    endloop
  endfacet
  facet normal 0.831419 0.555646 0
    outer loop
      vertex 18.2229 18.2229 1.7
      vertex 18.0061 18.5473 0
      vertex 18.0061 18.5473 1.7
    endloop
  endfacet
  facet normal 0.831419 0.555646 0
    outer loop
      vertex 18.0061 18.5473 0
      vertex 18.2229 18.2229 1.7
      vertex 18.2229 18.2229 0
    endloop
  endfacet
  facet normal 0.195075 0.980788 -0
    outer loop
      vertex 18.93 17.13 1.7
      vertex 18.2412 17.267 3
      vertex 18.93 17.13 3
    endloop
  endfacet
  facet normal 0.195075 0.980788 0
    outer loop
      vertex 18.2412 17.267 3
      vertex 18.93 17.13 1.7
      vertex 18.2412 17.267 1.7
    endloop
  endfacet
  facet normal 0 0 1
    outer loop
      vertex 18.5473 18.0061 1.7
      vertex 18.93 17.13 1.7
      vertex 18.93 17.93 1.7
    endloop
  endfacet
  facet normal 0 0 1
    outer loop
      vertex 18.5473 18.0061 1.7
      vertex 18.2412 17.267 1.7
      vertex 18.93 17.13 1.7
    endloop
  endfacet
  facet normal 0 0 1
    outer loop
      vertex 18.2229 18.2229 1.7
      vertex 18.2412 17.267 1.7
      vertex 18.5473 18.0061 1.7
    endloop
  endfacet
  facet normal 0 0 1
    outer loop
      vertex 17.6572 17.6572 1.7
      vertex 18.2229 18.2229 1.7
      vertex 18.0061 18.5473 1.7
    endloop
  endfacet
  facet normal 0 0 1
    outer loop
      vertex 17.267 18.2412 1.7
      vertex 18.0061 18.5473 1.7
      vertex 17.93 18.93 1.7
    endloop
  endfacet
  facet normal 0 0 1
    outer loop
      vertex 18.2229 18.2229 1.7
      vertex 17.6572 17.6572 1.7
      vertex 18.2412 17.267 1.7
    endloop
  endfacet
  facet normal 0 0 1
    outer loop
      vertex 18.0061 18.5473 1.7
      vertex 17.267 18.2412 1.7
      vertex 17.6572 17.6572 1.7
    endloop
  endfacet
  facet normal 0 -0 1
    outer loop
      vertex 17.267 18.2412 1.7
      vertex 17.93 18.93 1.7
      vertex 17.13 18.93 1.7
    endloop
  endfacet
  facet normal 0.555554 0.83148 -0
    outer loop
      vertex 18.2412 17.267 1.7
      vertex 17.6572 17.6572 3
      vertex 18.2412 17.267 3
    endloop
  endfacet
  facet normal 0.555554 0.83148 0
    outer loop
      vertex 17.6572 17.6572 3
      vertex 18.2412 17.267 1.7
      vertex 17.6572 17.6572 1.7
    endloop
  endfacet
  facet normal 0.980788 0.195075 0
    outer loop
      vertex 17.267 18.2412 3
      vertex 17.13 18.93 1.7
      vertex 17.13 18.93 3
    endloop
  endfacet
  facet normal 0.980788 0.195075 0
    outer loop
      vertex 17.13 18.93 1.7
      vertex 17.267 18.2412 3
      vertex 17.267 18.2412 1.7
    endloop
  endfacet
  facet normal 0.83148 0.555554 0
    outer loop
      vertex 17.6572 17.6572 3
      vertex 17.267 18.2412 1.7
      vertex 17.267 18.2412 3
    endloop
  endfacet
  facet normal 0.83148 0.555554 0
    outer loop
      vertex 17.267 18.2412 1.7
      vertex 17.6572 17.6572 3
      vertex 17.6572 17.6572 1.7
    endloop
  endfacet
endsolid OpenSCAD_Model
